<?xml version="1.0" standalone="no"?><!DOCTYPE svg PUBLIC "-//W3C//DTD SVG 1.1//EN" "http://www.w3.org/Graphics/SVG/1.1/DTD/svg11.dtd"><svg t="1711682251717" class="icon" viewBox="0 0 1024 1024" version="1.1" xmlns="http://www.w3.org/2000/svg" p-id="1531" xmlns:xlink="http://www.w3.org/1999/xlink" width="200" height="200"><path d="M352.840845 543.195847s-207.542886-216.165366 164.153263-363.43243c0 0 353.917126 147.254833 164.15734 363.43243" fill="#EB76BD" p-id="1532"></path><path d="M338.135745 557.313883c-3.355225-3.493837-81.944135-86.807784-59.43192-190.269388 18.137784-83.362869 95.784948-152.75039 230.776699-206.234227l7.697041-3.049463 7.644042 3.179922c8.035417 3.342995 197.159219 83.428098 228.318375 217.686021 13.820429 59.537918-5.246871 119.430519-56.671912 178.018537l-30.641399-26.898876c42.244036-48.122814 58.265949-95.842023 47.621365-141.832659-23.237889-100.38768-162.889448-170.345957-196.865687-186.02134-116.50336 47.535752-183.102335 105.895468-197.978661 173.521802-18.052171 82.086824 48.298118 152.986846 48.970794 153.692136l-29.438737 28.207535z" fill="#6E6E96" p-id="1533"></path><path d="M448.650253 543.195847s-83.065261-194.358442 65.697997-326.765487c0 0 141.645125 132.398892 65.697996 326.765487" fill="#FFA1D9" p-id="1534"></path><path d="M429.905023 551.206803c-0.909131-2.124025-22.296143-52.884543-24.566933-121.061248-3.049463-91.479823 29.960569-170.647641 95.458801-228.942128l13.885658-12.360926 13.583973 12.695226c1.569577 1.463579 38.705354 36.581329 65.991528 96.995763 25.255916 55.934006 46.589929 145.069656 4.778036 252.078097l-37.971526-14.835557c56.977673-145.823869-15.924069-253.105456-47.543905-290.347231-46.895691 48.416346-69.575055 109.544224-67.475491 182.009746 1.765264 60.838424 21.166863 107.310125 21.36255 107.774883l-37.502691 15.993375z" fill="#6E6E96" p-id="1535"></path><path d="M348.405262 589.03564H163.301207C100.591521 589.03564 49.280632 640.34653 49.280632 703.056216v280.175558h925.438736v-280.175558c0-62.725993-51.306813-114.036883-114.020575-114.036883h-184.003313" fill="#FFE9AD" p-id="1536"></path><path d="M995.103481 1003.615887H28.896519v-300.559671c0-74.112559 60.29213-134.404688 134.404688-134.404689h185.104055v40.768226H163.301207C111.668249 609.419753 69.664745 651.427334 69.664745 703.056216v259.791445h884.67051v-259.791445c0-51.641112-42.00758-93.652769-93.636462-93.65277h-184.003313v-40.768226h184.003313c74.112559 0 134.404688 60.300283 134.404688 134.420996v300.559671z" fill="#6E6E96" p-id="1537"></path><path d="M347.850814 543.195847h328.298372v440.04408H347.850814z" fill="#FFE9AD" p-id="1538"></path><path d="M696.533299 1003.624041H327.466701V522.811734h369.066598v480.812307z m-328.298372-40.768227h287.530146V563.57996H368.234927v399.275854z" fill="#6E6E96" p-id="1539"></path><path d="M935.687868 617.377711l-10.461127-5.605631v333.630857h-249.077555V543.195847h-59.647992v402.203013H346.09778v-351.870561H297.807816v351.870561H49.280632v37.82476h567.220562v0.008154h59.647992v-0.008154H974.719368V703.048062c0-34.049623-15.157627-64.73179-39.0315-85.670351z" fill="#6E6E96" opacity=".2" p-id="1540"></path><path d="M442.967162 962.847661v-134.535147c0-33.633787 31.065388-61.152339 69.028761-61.152339 37.967449 0 69.032838 27.518553 69.032838 61.152339v134.535147" fill="#B6B6DE" p-id="1541"></path><path d="M601.412874 962.847661h-40.768226v-134.535147c0-22.100455-22.279836-40.768226-48.648725-40.768226s-48.644648 18.667771-48.644647 40.768226v134.535147h-40.768227v-134.535147c0-44.9592 40.111858-81.536453 89.412874-81.536453 49.305093 0 89.416951 36.577253 89.416951 81.536453v134.535147z" fill="#6E6E96" p-id="1542"></path><path d="M151.127815 706.007835h85.613275v119.173679h-85.613275z" fill="#B6B6DE" p-id="1543"></path><path d="M257.125203 845.565627h-126.381501v-159.941905h126.381501v159.941905z m-85.613275-40.768226h44.845049v-78.405453h-44.845049v78.405453z" fill="#6E6E96" p-id="1544"></path><path d="M762.651209 706.007835h85.613275v119.173679h-85.613275z" fill="#B6B6DE" p-id="1545"></path><path d="M868.648597 845.565627h-126.381501v-159.941905h126.381501v159.941905z m-85.613275-40.768226h44.845049v-78.405453h-44.845049v78.405453z" fill="#6E6E96" p-id="1546"></path><path d="M483.564162 856.980731c0-34.249387 29.365353-62.277542 65.237316-62.277543 11.423257 0 26.246584 2.857853 35.615122 7.843807-9.731376-22.789438-37.258082-34.905755-64.519795-34.905755-35.871962 0-65.233239 23.947256-65.233238 58.200719v136.997548h28.892442l0.008153-105.858776z" fill="#6E6E96" opacity=".2" p-id="1547"></path><path d="M632.033889 247.418288c14.827404 22.544829 23.335733 48.591649 23.335732 76.371119 0 85.5562-80.309329 154.91926-179.380195 154.919259-84.638915 0-174.414626-31.770679-174.414626-118.745612-29.524349 99.06679 51.266045 183.224639 51.266045 183.224639h328.298372c112.675224-128.34653 33.678632-232.407427-49.105328-295.769405z" fill="#6E6E96" opacity=".15" p-id="1548"></path><path d="M495.692709 8.153645h40.768227v179.767494h-40.768227z" fill="#6E6E96" p-id="1549"></path><path d="M448.735866 55.538555h137.48269v40.768226h-137.48269z" fill="#6E6E96" p-id="1550"></path></svg>